 <svg version="1.0" xmlns="http://www.w3.org/2000/svg" width="375.000000pt" height="53.142857pt" viewBox="0 0 375.000000 53.142857" preserveAspectRatio="xMidYMid meet">
<metadata>
Created by potrace 1.12, written by Peter Selinger 2001-2015
</metadata>
<g transform="translate(0.000000,93.000000) scale(0.100000,-0.100000)" fill="#000000" stroke="none">
<path d="M3415 847 c-3 -7 -4 -143 -3 -302 l3 -290 30 0 30 0 2 130 c2 72 5
140 8 152 8 34 88 85 120 77 50 -12 60 -44 65 -208 l5 -151 35 0 35 0 3 82 c1
44 -1 123 -7 174 -8 89 -10 95 -45 126 -29 27 -44 33 -80 33 -50 0 -86 -16
-115 -51 l-20 -24 -1 133 0 132 -30 0 c-17 0 -33 -6 -35 -13z"></path>
<path d="M4443 838 c-34 -38 -43 -64 -43 -122 0 -49 2 -56 20 -56 13 0 20 -7
20 -20 0 -26 -4 -25 -46 6 -39 30 -67 26 -62 -8 2 -17 11 -24 33 -28 l30 -5 5
-175 5 -175 30 0 30 0 3 177 2 177 48 3 c43 3 47 5 47 28 0 20 -6 26 -29 28
-16 2 -33 -1 -39 -7 -24 -24 -32 -10 -29 46 5 73 21 93 79 93 35 0 43 3 43 18
0 30 -21 42 -75 42 -41 0 -56 -5 -72 -22z"></path>
<path d="M6474 846 c-3 -8 -4 -61 -2 -116 3 -111 2 -113 -57 -79 -29 17 -47
20 -92 17 -51 -4 -61 -9 -90 -43 -18 -21 -33 -48 -33 -60 0 -11 -5 -26 -11
-32 -19 -19 -7 -152 18 -203 40 -82 146 -110 215 -58 42 32 52 33 53 6 0 -27
29 -36 51 -17 14 11 15 51 12 304 l-3 290 -28 3 c-17 2 -29 -2 -33 -12z m-91
-237 c12 -6 37 -25 55 -42 30 -29 32 -35 32 -104 0 -70 -2 -75 -36 -113 -31
-35 -42 -40 -78 -40 -64 0 -86 29 -93 122 -7 94 8 143 51 169 36 22 40 23 69
8z"></path>
<path d="M4182 820 c-36 -34 -22 -70 28 -70 51 0 67 46 25 74 -30 20 -27 20
-53 -4z"></path>
<path d="M5550 816 c-6 -8 -10 -25 -8 -38 2 -18 10 -24 35 -26 27 -3 35 1 44
22 9 20 9 29 -1 41 -16 19 -54 19 -70 1z"></path>
<path d="M338 797 c-49 -23 -98 -63 -98 -80 0 -5 -8 -21 -18 -35 -64 -93 -40
-285 45 -363 71 -66 158 -87 269 -64 103 22 105 25 102 174 l-3 126 -105 0
-105 0 0 -25 c0 -24 3 -25 68 -28 l67 -3 0 -79 c0 -70 -2 -81 -22 -94 -29 -20
-114 -21 -161 -1 -68 28 -107 103 -107 203 0 89 16 134 65 182 39 38 46 41
112 47 62 5 76 3 122 -21 58 -29 71 -27 71 9 0 66 -199 100 -302 52z m247
-487 c-17 -19 -45 -27 -45 -14 0 11 34 33 49 34 11 0 10 -5 -4 -20z"></path>
<path d="M2934 806 c-3 -8 -4 -23 -2 -33 3 -16 14 -18 88 -18 l84 0 0 -250 1
-250 35 0 35 0 5 250 5 250 74 0 c78 0 102 13 88 49 -6 14 -30 16 -207 16
-165 0 -202 -3 -206 -14z"></path>
<path d="M5164 809 c-4 -7 -7 -134 -6 -283 l0 -271 25 -3 c38 -5 46 17 49 134
l3 109 100 5 c99 5 100 5 100 30 0 25 -1 25 -100 30 l-100 5 0 95 0 95 105 5
c104 5 105 5 105 30 l0 25 -137 3 c-98 2 -139 -1 -144 -9z"></path>
<path d="M4677 763 c-4 -3 -7 -28 -7 -54 0 -41 3 -48 22 -51 25 -4 32 -17 18
-38 -9 -13 -12 -13 -21 3 -15 25 -69 51 -81 39 -19 -19 -4 -47 27 -52 l30 -5
3 -151 3 -151 28 -27 c23 -22 38 -27 80 -28 37 -1 57 4 69 15 27 27 5 50 -48
51 l-45 1 -8 55 c-4 30 -6 96 -5 145 l3 90 55 5 c51 5 55 7 55 30 0 21 -5 25
-36 28 -23 2 -40 -2 -49 -12 -23 -29 -30 -17 -30 49 0 65 0 65 -28 65 -16 0
-32 -3 -35 -7z"></path>
<path d="M915 673 c-30 -8 -46 -24 -63 -63 l-15 -35 -10 35 c-5 19 -11 41 -13
48 -2 7 -14 12 -26 10 l-23 -3 0 -205 0 -205 35 0 35 0 3 141 c2 138 3 141 31
175 25 29 35 34 72 34 37 0 44 3 47 22 3 19 -31 56 -48 52 -3 -1 -14 -4 -25
-6z"></path>
<path d="M1164 664 c-11 -3 -38 -22 -58 -43 -47 -48 -67 -124 -57 -212 14
-118 107 -182 230 -159 55 10 86 34 119 90 23 39 26 57 26 130 0 93 -16 136
-65 172 -26 19 -147 33 -195 22z m135 -60 c34 -24 51 -74 51 -149 0 -106 -31
-144 -117 -145 -45 0 -54 4 -76 30 -40 47 -48 186 -13 229 38 47 113 64 155
35z"></path>
<path d="M1605 654 c-81 -45 -98 -82 -93 -212 3 -90 6 -102 31 -135 47 -62
176 -81 250 -37 113 67 130 265 31 361 -33 32 -40 34 -112 37 -56 2 -85 -2
-107 -14z m144 -49 c31 -16 38 -27 57 -95 14 -50 4 -110 -26 -165 -16 -28 -21
-30 -82 -33 l-65 -3 -26 40 c-23 34 -27 52 -27 110 0 47 5 79 17 99 32 56 97
76 152 47z"></path>
<path d="M1936 661 c-4 -5 9 -50 29 -99 19 -49 35 -94 35 -101 0 -6 4 -19 10
-29 5 -9 19 -46 31 -82 32 -99 34 -102 81 -98 41 3 42 4 63 65 12 35 25 66 28
70 4 3 7 15 7 25 0 10 4 26 10 36 24 42 71 205 62 214 -14 14 -54 6 -62 -12
-4 -8 -12 -25 -18 -37 -7 -13 -12 -30 -12 -38 0 -8 -4 -23 -9 -33 -5 -9 -16
-44 -26 -77 -9 -33 -21 -69 -25 -80 -5 -11 -10 -27 -13 -35 -5 -17 -37 52 -37
79 0 9 -4 21 -8 26 -5 6 -17 37 -27 70 -18 61 -31 98 -45 125 -8 17 -65 26
-74 11z"></path>
<path d="M2347 664 c-12 -12 -8 -33 13 -76 11 -23 20 -48 20 -56 0 -12 22 -70
56 -149 8 -17 14 -37 14 -45 0 -8 9 -31 19 -51 21 -40 18 -64 -11 -112 -10
-16 -18 -42 -18 -57 0 -24 4 -28 30 -28 25 0 33 6 47 38 23 53 28 67 58 157
27 80 33 98 52 145 6 14 18 50 27 80 18 57 32 92 48 123 12 23 2 37 -26 37
-28 0 -56 -29 -56 -58 0 -11 -4 -23 -8 -26 -4 -3 -21 -44 -36 -93 -15 -48 -32
-99 -37 -112 -7 -17 -6 -26 2 -32 8 -4 9 -16 4 -35 l-9 -29 -3 25 c-2 14 -9
36 -15 50 -14 34 -23 57 -37 105 -7 22 -16 49 -20 60 -5 11 -17 47 -28 80 -18
54 -23 60 -49 63 -17 2 -33 0 -37 -4z m183 -414 c0 -5 -4 -10 -10 -10 -5 0
-10 5 -10 10 0 6 5 10 10 10 6 0 10 -4 10 -10z"></path>
<path d="M3875 658 c-3 -8 -4 -101 -3 -208 l3 -195 30 0 30 0 5 140 c5 129 7
143 29 173 25 32 31 35 86 36 26 1 30 5 30 31 0 28 -3 30 -44 33 -34 3 -49 -2
-67 -19 -13 -12 -24 -28 -24 -36 0 -28 -19 -11 -22 20 -2 24 -8 33 -26 35 -12
2 -24 -3 -27 -10z"></path>
<path d="M4185 658 c-3 -8 -4 -101 -3 -208 l3 -195 30 0 30 0 0 205 0 205 -28
3 c-16 2 -29 -2 -32 -10z"></path>
<path d="M5555 658 c-3 -8 -4 -101 -3 -208 l3 -195 30 0 30 0 0 205 0 205 -28
3 c-16 2 -29 -2 -32 -10z m22 -220 c-3 -8 -6 -5 -6 6 -1 11 2 17 5 13 3 -3 4
-12 1 -19z"></path>
<path d="M5755 658 c-3 -8 -4 -101 -3 -208 l3 -195 30 0 30 0 5 140 c5 153 11
168 73 208 27 17 29 17 65 0 46 -23 52 -44 55 -213 l2 -135 27 -3 c44 -5 51
23 46 172 -6 141 -18 185 -61 225 -23 21 -33 23 -86 19 -45 -3 -67 -10 -84
-26 -29 -28 -35 -28 -39 1 -4 26 -54 38 -63 15z"></path>
<path d="M6703 654 c-59 -25 -80 -126 -35 -167 9 -9 47 -30 83 -47 77 -36 100
-66 79 -105 -19 -36 -86 -44 -142 -16 -44 21 -63 17 -56 -14 7 -37 51 -57 126
-57 77 -1 112 16 138 68 34 66 2 124 -93 169 -32 15 -66 34 -75 42 -23 21 -23
56 0 76 21 20 84 22 111 5 24 -14 53 -3 49 19 -8 41 -118 57 -185 27z"></path>
</g>
</svg>
